# xmcd
#
# Track frame offsets:
#	150
#	17295
#	30496
#	49078
#	65253
#	80501
#	96883
#	108218
#	122269
#	132726
#
# Disc length: 1977 seconds
#
# Revision: 1
# Processed by: cddbd v1.5.2PL0 Copyright (c) Steve Scherf et al.
# Submitted via: audiograbber 1.83.01
#
DISCID=7307b70a
DTITLE=Betty Adams - Betty's Best Country Gospel
DYEAR=1900
DGENRE=
TTITLE0=Down Memories Lane
TTITLE1=Build a Bridge
TTITLE2=Sleepy Black Eyes
TTITLE3=Don't Criticize Peter
TTITLE4=She Taught Us to Sing
TTITLE5=Mama's Yellow Roses
TTITLE6=Preacher's Wife
TTITLE7=Idaho
TTITLE8=Boot Jack
TTITLE9=I'm Almost Home
EXTD=
EXTT0=
EXTT1=
EXTT2=
EXTT3=
EXTT4=
EXTT5=
EXTT6=
EXTT7=
EXTT8=
EXTT9=
PLAYORDER=
